# This file uses centimeters as units for non-parametric coordinates.

mtllib pokerchip.mtl
g default
v 0.923880 0.000000 -0.382683
v 0.707107 0.000000 -0.707106
v 0.382684 0.000000 -0.923879
v 0.000001 0.000000 -1.000000
v -0.382683 0.000000 -0.923880
v -0.707106 0.000000 -0.707107
v -0.923879 0.000000 -0.382684
v -1.000000 0.000000 -0.000000
v -0.923880 0.000000 0.382683
v -0.707107 0.000000 0.707107
v -0.382684 0.000000 0.923879
v -0.000000 0.000000 1.000000
v 0.382683 0.000000 0.923880
v 0.707107 0.000000 0.707107
v 0.923880 0.000000 0.382683
v 1.000000 0.000000 0.000000
v 0.923880 0.156604 -0.382683
v 0.707107 0.156604 -0.707106
v 0.382684 0.156604 -0.923879
v 0.000001 0.156604 -1.000000
v -0.382683 0.156604 -0.923880
v -0.707106 0.156604 -0.707107
v -0.923879 0.156604 -0.382684
v -1.000000 0.156604 -0.000000
v -0.923880 0.156604 0.382683
v -0.707107 0.156604 0.707107
v -0.382684 0.156604 0.923879
v -0.000000 0.156604 1.000000
v 0.382683 0.156604 0.923880
v 0.707107 0.156604 0.707107
v 0.923880 0.156604 0.382683
v 1.000000 0.156604 0.000000
v 0.000000 0.000000 0.000000
v 0.000000 0.156604 0.000000
vt 0.888020 0.785637
vt 0.959130 0.617128
vt 0.500000 0.522635
vt 0.757837 0.914106
vt 0.588401 0.982977
vt 0.405507 0.981765
vt 0.236998 0.910655
vt 0.108529 0.780472
vt 0.039658 0.611036
vt 0.040870 0.428142
vt 0.111980 0.259634
vt 0.242163 0.131165
vt 0.411599 0.062293
vt 0.594493 0.063505
vt 0.763002 0.134615
vt 0.891471 0.264798
vt 0.807938 0.011863
vt 0.869519 0.011863
vt 0.869519 0.039601
vt 0.807938 0.039601
vt 0.931100 0.039601
vt 0.007382 0.011863
vt 0.007382 0.039601
vt 0.068963 0.011863
vt 0.068963 0.039601
vt 0.130545 0.011863
vt 0.130545 0.039601
vt 0.192126 0.011863
vt 0.192126 0.039601
vt 0.253707 0.011863
vt 0.253707 0.039601
vt 0.315288 0.011863
vt 0.315288 0.039601
vt 0.376869 0.011863
vt 0.376869 0.039601
vt 0.438451 0.011863
vt 0.438451 0.039601
vt 0.500032 0.011863
vt 0.500032 0.039601
vt 0.561613 0.011863
vt 0.561613 0.039601
vt 0.623194 0.011863
vt 0.623194 0.039601
vt 0.684775 0.011863
vt 0.684775 0.039601
vt 0.746356 0.011863
vt 0.746356 0.039601
vt 0.960342 0.434234
vt 0.891471 0.264798
vt 0.960342 0.434234
vt 0.959130 0.617128
vt 0.888020 0.785637
vt 0.500000 0.522635
vt 0.757837 0.914106
vt 0.588401 0.982977
vt 0.405507 0.981765
vt 0.236998 0.910655
vt 0.108529 0.780472
vt 0.039658 0.611036
vt 0.040870 0.428142
vt 0.111980 0.259634
vt 0.242163 0.131165
vt 0.411599 0.062293
vt 0.594493 0.063505
vt 0.763002 0.134615
vt 0.931100 0.011863
vt 0.992681 0.011863
vt 0.992681 0.039601
vn 0.923880 0.000000 -0.382683
vn 0.707107 0.000000 -0.707107
vn 0.707107 0.000000 -0.707107
vn 0.923880 0.000000 -0.382683
vn 0.382684 0.000000 -0.923879
vn 0.382684 0.000000 -0.923879
vn 0.000001 0.000000 -1.000000
vn 0.000001 0.000000 -1.000000
vn -0.382683 0.000000 -0.923880
vn -0.382683 0.000000 -0.923880
vn -0.707106 0.000000 -0.707107
vn -0.707106 0.000000 -0.707107
vn -0.923879 0.000000 -0.382684
vn -0.923879 0.000000 -0.382684
vn -1.000000 0.000000 -0.000000
vn -1.000000 0.000000 -0.000000
vn -0.923880 0.000000 0.382683
vn -0.923880 0.000000 0.382683
vn -0.707107 0.000000 0.707107
vn -0.707107 0.000000 0.707107
vn -0.382684 0.000000 0.923879
vn -0.382684 0.000000 0.923879
vn -0.000000 0.000000 1.000000
vn -0.000000 0.000000 1.000000
vn 0.382683 0.000000 0.923880
vn 0.382683 0.000000 0.923880
vn 0.707107 0.000000 0.707107
vn 0.707107 0.000000 0.707107
vn 0.923880 0.000000 0.382684
vn 0.923880 0.000000 0.382684
vn 1.000000 0.000000 0.000000
vn 1.000000 0.000000 0.000000
vn 0.000000 -1.000000 0.000000
vn 0.000000 -1.000000 0.000000
vn 0.000000 -1.000000 0.000000
vn 0.000000 -1.000000 0.000000
vn 0.000000 -1.000000 0.000000
vn 0.000000 -1.000000 0.000000
vn 0.000000 -1.000000 0.000000
vn 0.000000 -1.000000 0.000000
vn 0.000000 -1.000000 0.000000
vn 0.000000 -1.000000 0.000000
vn 0.000000 -1.000000 0.000000
vn 0.000000 -1.000000 0.000000
vn 0.000000 -1.000000 0.000000
vn 0.000000 -1.000000 0.000000
vn 0.000000 -1.000000 0.000000
vn 0.000000 -1.000000 0.000000
vn 0.000000 -1.000000 0.000000
vn 0.000000 1.000000 0.000000
vn 0.000000 1.000000 0.000000
vn 0.000000 1.000000 0.000000
vn 0.000000 1.000000 0.000000
vn 0.000000 1.000000 0.000000
vn 0.000000 1.000000 0.000000
vn 0.000000 1.000000 0.000000
vn 0.000000 1.000000 0.000000
vn 0.000000 1.000000 0.000000
vn 0.000000 1.000000 0.000000
vn 0.000000 1.000000 0.000000
vn 0.000000 1.000000 0.000000
vn 0.000000 1.000000 0.000000
vn 0.000000 1.000000 0.000000
vn 0.000000 1.000000 0.000000
vn 0.000000 1.000000 0.000000
vn 0.000000 1.000000 0.000000
s 1
g poker_chip_single
usemtl lambert2SG
f 1/17/1 2/18/2 18/19/3 17/20/4
f 2/18/2 3/66/5 19/21/6 18/19/3
f 3/66/5 4/67/7 20/68/8 19/21/6
f 4/22/7 5/24/9 21/25/10 20/23/8
f 5/24/9 6/26/11 22/27/12 21/25/10
f 6/26/11 7/28/13 23/29/14 22/27/12
f 7/28/13 8/30/15 24/31/16 23/29/14
f 8/30/15 9/32/17 25/33/18 24/31/16
f 9/32/17 10/34/19 26/35/20 25/33/18
f 10/34/19 11/36/21 27/37/22 26/35/20
f 11/36/21 12/38/23 28/39/24 27/37/22
f 12/38/23 13/40/25 29/41/26 28/39/24
f 13/40/25 14/42/27 30/43/28 29/41/26
f 14/42/27 15/44/29 31/45/30 30/43/28
f 15/44/29 16/46/31 32/47/32 31/45/30
f 16/46/31 1/17/1 17/20/4 32/47/32
s 2
f 2/1/33 1/2/34 33/3/35
f 3/4/36 2/1/33 33/3/35
f 4/5/37 3/4/36 33/3/35
f 5/6/38 4/5/37 33/3/35
f 6/7/39 5/6/38 33/3/35
f 7/8/40 6/7/39 33/3/35
f 8/9/41 7/8/40 33/3/35
f 9/10/42 8/9/41 33/3/35
f 10/11/43 9/10/42 33/3/35
f 11/12/44 10/11/43 33/3/35
f 12/13/45 11/12/44 33/3/35
f 13/14/46 12/13/45 33/3/35
f 14/15/47 13/14/46 33/3/35
f 15/16/48 14/15/47 33/3/35
f 16/50/49 15/16/48 33/3/35
f 1/2/34 16/50/49 33/3/35
s 3
f 17/51/50 18/52/51 34/53/52
f 18/52/51 19/54/53 34/53/52
f 19/54/53 20/55/54 34/53/52
f 20/55/54 21/56/55 34/53/52
f 21/56/55 22/57/56 34/53/52
f 22/57/56 23/58/57 34/53/52
f 23/58/57 24/59/58 34/53/52
f 24/59/58 25/60/59 34/53/52
f 25/60/59 26/61/60 34/53/52
f 26/61/60 27/62/61 34/53/52
f 27/62/61 28/63/62 34/53/52
f 28/63/62 29/64/63 34/53/52
f 29/64/63 30/65/64 34/53/52
f 30/65/64 31/49/65 34/53/52
f 31/49/65 32/48/66 34/53/52
f 32/48/66 17/51/50 34/53/52
